<svg width="254" height="96" viewBox="0 0 254 96" fill="none" xmlns="http://www.w3.org/2000/svg">
<path d="M110.985 24.7357C108.566 24.7357 106.649 24.0657 105.234 22.7258C103.82 21.3673 103.113 19.4318 103.113 16.9194V12.2297C103.113 9.71729 103.82 7.79114 105.234 6.45121C106.649 5.09266 108.566 4.41339 110.985 4.41339C113.386 4.41339 115.237 5.07405 116.54 6.39538C117.861 7.69809 118.522 9.49397 118.522 11.783V11.9505H114.893V11.6714C114.893 10.5175 114.567 9.56841 113.916 8.824C113.283 8.0796 112.306 7.70739 110.985 7.70739C109.682 7.70739 108.659 8.10751 107.914 8.90775C107.17 9.70799 106.798 10.7967 106.798 12.1738V16.9753C106.798 18.3338 107.17 19.4225 107.914 20.2414C108.659 21.0416 109.682 21.4417 110.985 21.4417C112.306 21.4417 113.283 21.0695 113.916 20.3251C114.567 19.5621 114.893 18.613 114.893 17.4777V16.9753H118.522V17.3661C118.522 19.6551 117.861 21.4603 116.54 22.7816C115.237 24.0844 113.386 24.7357 110.985 24.7357Z" fill="#8A35F5"/>
<path d="M128.224 24.7357C126.847 24.7357 125.609 24.4566 124.511 23.8983C123.413 23.3399 122.548 22.5304 121.915 21.4696C121.283 20.4088 120.966 19.134 120.966 17.6452V17.1986C120.966 15.7098 121.283 14.435 121.915 13.3742C122.548 12.3134 123.413 11.5039 124.511 10.9456C125.609 10.3873 126.847 10.1081 128.224 10.1081C129.601 10.1081 130.839 10.3873 131.937 10.9456C133.035 11.5039 133.9 12.3134 134.533 13.3742C135.166 14.435 135.482 15.7098 135.482 17.1986V17.6452C135.482 19.134 135.166 20.4088 134.533 21.4696C133.9 22.5304 133.035 23.3399 131.937 23.8983C130.839 24.4566 129.601 24.7357 128.224 24.7357ZM128.224 21.6092C129.304 21.6092 130.197 21.2649 130.904 20.5763C131.611 19.8691 131.965 18.8642 131.965 17.5615V17.2823C131.965 15.9796 131.611 14.984 130.904 14.2954C130.215 13.5882 129.322 13.2346 128.224 13.2346C127.145 13.2346 126.251 13.5882 125.544 14.2954C124.837 14.984 124.483 15.9796 124.483 17.2823V17.5615C124.483 18.8642 124.837 19.8691 125.544 20.5763C126.251 21.2649 127.145 21.6092 128.224 21.6092Z" fill="#8A35F5"/>
<path d="M138.729 24.3449V10.4989H142.19V12.0063H142.693C142.935 11.5411 143.335 11.141 143.893 10.806C144.451 10.4524 145.187 10.2756 146.098 10.2756C147.085 10.2756 147.876 10.471 148.471 10.8618C149.067 11.234 149.523 11.7272 149.839 12.3413H150.342C150.658 11.7458 151.105 11.2526 151.681 10.8618C152.258 10.471 153.077 10.2756 154.138 10.2756C154.994 10.2756 155.766 10.4617 156.455 10.8339C157.162 11.1875 157.72 11.7365 158.13 12.4809C158.558 13.2067 158.772 14.1279 158.772 15.2445V24.3449H155.255V15.4958C155.255 14.7327 155.059 14.1651 154.668 13.7929C154.278 13.4021 153.729 13.2067 153.021 13.2067C152.221 13.2067 151.598 13.4672 151.151 13.9883C150.723 14.4908 150.509 15.2166 150.509 16.1657V24.3449H146.992V15.4958C146.992 14.7327 146.796 14.1651 146.405 13.7929C146.015 13.4021 145.466 13.2067 144.758 13.2067C143.958 13.2067 143.335 13.4672 142.888 13.9883C142.46 14.4908 142.246 15.2166 142.246 16.1657V24.3449H138.729Z" fill="#8A35F5"/>
<path d="M162.555 24.3449V10.4989H166.016V12.0063H166.519C166.761 11.5411 167.161 11.141 167.719 10.806C168.278 10.4524 169.013 10.2756 169.925 10.2756C170.911 10.2756 171.702 10.471 172.297 10.8618C172.893 11.234 173.349 11.7272 173.665 12.3413H174.168C174.484 11.7458 174.931 11.2526 175.508 10.8618C176.085 10.471 176.903 10.2756 177.964 10.2756C178.82 10.2756 179.593 10.4617 180.281 10.8339C180.988 11.1875 181.547 11.7365 181.956 12.4809C182.384 13.2067 182.598 14.1279 182.598 15.2445V24.3449H179.081V15.4958C179.081 14.7327 178.885 14.1651 178.495 13.7929C178.104 13.4021 177.555 13.2067 176.848 13.2067C176.047 13.2067 175.424 13.4672 174.977 13.9883C174.549 14.4908 174.335 15.2166 174.335 16.1657V24.3449H170.818V15.4958C170.818 14.7327 170.622 14.1651 170.232 13.7929C169.841 13.4021 169.292 13.2067 168.585 13.2067C167.784 13.2067 167.161 13.4672 166.714 13.9883C166.286 14.4908 166.072 15.2166 166.072 16.1657V24.3449H162.555Z" fill="#8A35F5"/>
<path d="M191.439 24.5682C190.36 24.5682 189.41 24.3263 188.592 23.8424C187.791 23.3399 187.168 22.6514 186.721 21.7767C186.275 20.902 186.051 19.8971 186.051 18.7618V10.4989H189.569V18.4827C189.569 19.5249 189.82 20.3065 190.322 20.8276C190.843 21.3487 191.579 21.6092 192.528 21.6092C193.607 21.6092 194.444 21.2556 195.04 20.5484C195.636 19.8226 195.933 18.8177 195.933 17.5336V10.4989H199.451V24.3449H195.989V22.5304H195.487C195.263 22.9957 194.845 23.4516 194.23 23.8983C193.616 24.3449 192.686 24.5682 191.439 24.5682Z" fill="#8A35F5"/>
<path d="M203.365 24.3449V10.4989H206.826V12.3134H207.329C207.552 11.8296 207.971 11.3736 208.585 10.9456C209.199 10.4989 210.129 10.2756 211.376 10.2756C212.456 10.2756 213.396 10.5268 214.196 11.0293C215.015 11.5132 215.647 12.1924 216.094 13.0671C216.541 13.9232 216.764 14.9281 216.764 16.082V24.3449H213.247V16.3611C213.247 15.319 212.986 14.5373 212.465 14.0162C211.963 13.4952 211.237 13.2346 210.288 13.2346C209.208 13.2346 208.371 13.5975 207.775 14.3233C207.18 15.0305 206.882 16.0261 206.882 17.3102V24.3449H203.365Z" fill="#8A35F5"/>
<path d="M220.566 24.3449V10.4989H224.084V24.3449H220.566ZM222.325 8.87984C221.692 8.87984 221.153 8.67512 220.706 8.2657C220.278 7.85628 220.064 7.31658 220.064 6.64661C220.064 5.97665 220.278 5.43695 220.706 5.02753C221.153 4.6181 221.692 4.41339 222.325 4.41339C222.976 4.41339 223.516 4.6181 223.944 5.02753C224.372 5.43695 224.586 5.97665 224.586 6.64661C224.586 7.31658 224.372 7.85628 223.944 8.2657C223.516 8.67512 222.976 8.87984 222.325 8.87984Z" fill="#8A35F5"/>
<path d="M233.285 24.3449C232.373 24.3449 231.629 24.0657 231.052 23.5074C230.494 22.9305 230.215 22.1675 230.215 21.2184V13.4021H226.753V10.4989H230.215V6.19997H233.732V10.4989H237.528V13.4021H233.732V20.6043C233.732 21.1626 233.992 21.4417 234.514 21.4417H237.193V24.3449H233.285Z" fill="#8A35F5"/>
<path d="M242.22 29.928V26.8573H249.757C250.278 26.8573 250.538 26.5781 250.538 26.0198V22.5304H250.036C249.887 22.8468 249.654 23.1632 249.338 23.4795C249.022 23.7959 248.594 24.0564 248.054 24.2612C247.514 24.4659 246.826 24.5682 245.988 24.5682C244.909 24.5682 243.96 24.3263 243.141 23.8424C242.341 23.3399 241.717 22.6514 241.271 21.7767C240.824 20.902 240.601 19.8971 240.601 18.7618V10.4989H244.118V18.4827C244.118 19.5249 244.369 20.3065 244.872 20.8276C245.393 21.3487 246.128 21.6092 247.077 21.6092C248.156 21.6092 248.994 21.2556 249.589 20.5484C250.185 19.8226 250.483 18.8177 250.483 17.5336V10.4989H254V26.8014C254 27.7506 253.721 28.5043 253.162 29.0626C252.604 29.6395 251.86 29.928 250.929 29.928H242.22Z" fill="#8A35F5"/>
<path d="M110.399 54.9773C108.928 54.9773 107.626 54.7167 106.491 54.1956C105.355 53.6745 104.462 52.9115 103.811 51.9066C103.178 50.883 102.862 49.6454 102.862 48.1938V47.496H105.849V48.1938C105.849 49.571 106.258 50.6039 107.077 51.2924C107.914 51.981 109.022 52.3253 110.399 52.3253C111.794 52.3253 112.846 52.0369 113.553 51.4599C114.26 50.8644 114.614 50.1014 114.614 49.1709C114.614 48.5567 114.446 48.0543 114.111 47.6635C113.776 47.2726 113.302 46.9656 112.688 46.7423C112.074 46.5003 111.339 46.277 110.482 46.0723L109.45 45.8211C108.203 45.5233 107.114 45.1604 106.183 44.7324C105.272 44.2857 104.564 43.6995 104.062 42.9737C103.559 42.2479 103.308 41.3174 103.308 40.1822C103.308 39.0283 103.587 38.042 104.146 37.2231C104.723 36.4043 105.514 35.7716 106.518 35.3249C107.523 34.8783 108.705 34.6549 110.064 34.6549C111.422 34.6549 112.632 34.8876 113.693 35.3528C114.772 35.8181 115.619 36.5067 116.233 37.4186C116.847 38.3305 117.154 39.475 117.154 40.8521V41.8571H114.167V40.8521C114.167 40.0147 113.99 39.3354 113.637 38.8143C113.302 38.2932 112.827 37.9117 112.213 37.6698C111.599 37.4279 110.883 37.3069 110.064 37.3069C108.873 37.3069 107.942 37.5581 107.272 38.0606C106.621 38.5445 106.295 39.2237 106.295 40.0984C106.295 40.6939 106.435 41.1871 106.714 41.5779C107.012 41.9501 107.44 42.2572 107.998 42.4991C108.556 42.7411 109.254 42.9551 110.092 43.1412L111.124 43.3924C112.39 43.6716 113.507 44.0345 114.474 44.4811C115.442 44.9092 116.205 45.4954 116.763 46.2398C117.322 46.9842 117.601 47.9426 117.601 49.1151C117.601 50.2875 117.303 51.3111 116.708 52.1857C116.131 53.0604 115.302 53.749 114.223 54.2515C113.144 54.7353 111.869 54.9773 110.399 54.9773Z" fill="#8A35F5"/>
<path d="M127.242 54.9773C125.921 54.9773 124.72 54.6981 123.641 54.1398C122.58 53.5815 121.733 52.772 121.101 51.7112C120.487 50.6504 120.18 49.3756 120.18 47.8868V47.5239C120.18 46.0351 120.487 44.7696 121.101 43.7274C121.733 42.6666 122.58 41.8571 123.641 41.2988C124.72 40.7219 125.921 40.4334 127.242 40.4334C128.563 40.4334 129.689 40.6753 130.62 41.1592C131.55 41.6431 132.295 42.2851 132.853 43.0854C133.43 43.8856 133.802 44.7696 133.97 45.7373L131.178 46.3235C131.085 45.7094 130.89 45.1511 130.592 44.6486C130.294 44.1461 129.875 43.746 129.336 43.4483C128.796 43.1505 128.117 43.0016 127.298 43.0016C126.498 43.0016 125.772 43.1877 125.121 43.5599C124.488 43.9135 123.985 44.4346 123.613 45.1232C123.241 45.7931 123.055 46.612 123.055 47.5797V47.8309C123.055 48.7987 123.241 49.6268 123.613 50.3154C123.985 51.004 124.488 51.5251 125.121 51.8787C125.772 52.2323 126.498 52.4091 127.298 52.4091C128.508 52.4091 129.429 52.102 130.062 51.4879C130.694 50.8551 131.094 50.0549 131.262 49.0871L134.053 49.7292C133.83 50.6783 133.43 51.553 132.853 52.3532C132.295 53.1535 131.55 53.7955 130.62 54.2794C129.689 54.7446 128.563 54.9773 127.242 54.9773Z" fill="#8A35F5"/>
<path d="M137.37 54.5864V40.8242H140.245V54.5864H137.37ZM138.821 38.9539C138.263 38.9539 137.788 38.7771 137.398 38.4235C137.025 38.0513 136.839 37.5767 136.839 36.9998C136.839 36.4229 137.025 35.9577 137.398 35.6041C137.788 35.2319 138.263 35.0458 138.821 35.0458C139.398 35.0458 139.873 35.2319 140.245 35.6041C140.617 35.9577 140.803 36.4229 140.803 36.9998C140.803 37.5767 140.617 38.0513 140.245 38.4235C139.873 38.7771 139.398 38.9539 138.821 38.9539Z" fill="#8A35F5"/>
<path d="M150.821 54.9773C149.425 54.9773 148.206 54.6888 147.164 54.1119C146.122 53.5164 145.303 52.6882 144.707 51.6274C144.131 50.548 143.842 49.3012 143.842 47.8868V47.5518C143.842 46.1188 144.131 44.8719 144.707 43.8112C145.284 42.7318 146.085 41.9036 147.108 41.3267C148.15 40.7312 149.351 40.4334 150.709 40.4334C152.031 40.4334 153.184 40.7312 154.171 41.3267C155.176 41.9036 155.957 42.7132 156.516 43.7553C157.074 44.7975 157.353 46.0165 157.353 47.4122V48.5009H146.773C146.81 49.7106 147.211 50.6783 147.974 51.4041C148.755 52.1113 149.723 52.4649 150.877 52.4649C151.956 52.4649 152.766 52.223 153.305 51.7391C153.864 51.2552 154.292 50.6969 154.589 50.0642L156.962 51.2924C156.702 51.8135 156.32 52.3625 155.818 52.9394C155.334 53.5164 154.692 54.0002 153.892 54.391C153.091 54.7819 152.068 54.9773 150.821 54.9773ZM146.801 46.2956H154.422C154.348 45.2534 153.975 44.4439 153.305 43.867C152.635 43.2715 151.761 42.9737 150.681 42.9737C149.602 42.9737 148.718 43.2715 148.029 43.867C147.359 44.4439 146.95 45.2534 146.801 46.2956Z" fill="#8A35F5"/>
<path d="M160.814 54.5864V40.8242H163.634V42.8899H164.08C164.341 42.3316 164.806 41.8106 165.476 41.3267C166.146 40.8428 167.142 40.6009 168.463 40.6009C169.505 40.6009 170.426 40.8335 171.227 41.2988C172.045 41.764 172.687 42.4247 173.153 43.2808C173.618 44.1182 173.851 45.1325 173.851 46.3235V54.5864H170.975V46.5468C170.975 45.3558 170.678 44.4811 170.082 43.9228C169.486 43.3459 168.668 43.0574 167.625 43.0574C166.434 43.0574 165.476 43.4483 164.75 44.2299C164.043 45.0115 163.689 46.1467 163.689 47.6355V54.5864H160.814Z" fill="#8A35F5"/>
<path d="M184.381 54.9773C183.06 54.9773 181.859 54.6981 180.78 54.1398C179.719 53.5815 178.873 52.772 178.24 51.7112C177.626 50.6504 177.319 49.3756 177.319 47.8868V47.5239C177.319 46.0351 177.626 44.7696 178.24 43.7274C178.873 42.6666 179.719 41.8571 180.78 41.2988C181.859 40.7219 183.06 40.4334 184.381 40.4334C185.702 40.4334 186.828 40.6753 187.759 41.1592C188.689 41.6431 189.434 42.2851 189.992 43.0854C190.569 43.8856 190.941 44.7696 191.109 45.7373L188.317 46.3235C188.224 45.7094 188.029 45.1511 187.731 44.6486C187.433 44.1461 187.015 43.746 186.475 43.4483C185.935 43.1505 185.256 43.0016 184.437 43.0016C183.637 43.0016 182.911 43.1877 182.26 43.5599C181.627 43.9135 181.124 44.4346 180.752 45.1232C180.38 45.7931 180.194 46.612 180.194 47.5797V47.8309C180.194 48.7987 180.38 49.6268 180.752 50.3154C181.124 51.004 181.627 51.5251 182.26 51.8787C182.911 52.2323 183.637 52.4091 184.437 52.4091C185.647 52.4091 186.568 52.102 187.201 51.4879C187.833 50.8551 188.233 50.0549 188.401 49.0871L191.192 49.7292C190.969 50.6783 190.569 51.553 189.992 52.3532C189.434 53.1535 188.689 53.7955 187.759 54.2794C186.828 54.7446 185.702 54.9773 184.381 54.9773Z" fill="#8A35F5"/>
<path d="M200.818 54.9773C199.422 54.9773 198.203 54.6888 197.161 54.1119C196.119 53.5164 195.3 52.6882 194.704 51.6274C194.127 50.548 193.839 49.3012 193.839 47.8868V47.5518C193.839 46.1188 194.127 44.8719 194.704 43.8112C195.281 42.7318 196.081 41.9036 197.105 41.3267C198.147 40.7312 199.347 40.4334 200.706 40.4334C202.027 40.4334 203.181 40.7312 204.167 41.3267C205.172 41.9036 205.954 42.7132 206.512 43.7553C207.071 44.7975 207.35 46.0165 207.35 47.4122V48.5009H196.77C196.807 49.7106 197.207 50.6783 197.97 51.4041C198.752 52.1113 199.72 52.4649 200.873 52.4649C201.953 52.4649 202.762 52.223 203.302 51.7391C203.86 51.2552 204.288 50.6969 204.586 50.0642L206.959 51.2924C206.698 51.8135 206.317 52.3625 205.814 52.9394C205.331 53.5164 204.689 54.0002 203.888 54.391C203.088 54.7819 202.064 54.9773 200.818 54.9773ZM196.798 46.2956H204.419C204.344 45.2534 203.972 44.4439 203.302 43.867C202.632 43.2715 201.757 42.9737 200.678 42.9737C199.599 42.9737 198.715 43.2715 198.026 43.867C197.356 44.4439 196.947 45.2534 196.798 46.2956Z" fill="#8A35F5"/>
<path d="M104.118 84.828V65.2873H107.607L113.525 83.7672H113.86L119.778 65.2873H123.268V84.828H121.537V66.3481H121.202L115.284 84.828H112.102L106.183 66.3481H105.849V84.828H104.118Z" fill="#8A35F5"/>
<path d="M133.356 85.1071C132.388 85.1071 131.486 84.9024 130.648 84.493C129.83 84.0836 129.169 83.4695 128.666 82.6506C128.183 81.8131 127.941 80.771 127.941 79.5241V71.2612H129.616V79.4124C129.616 80.8826 129.988 81.9527 130.732 82.6227C131.477 83.274 132.472 83.5997 133.719 83.5997C135.115 83.5997 136.278 83.1438 137.208 82.2319C138.139 81.3014 138.604 79.9056 138.604 78.0446V71.2612H140.279V84.828H138.66V82.3156H138.325C137.99 83.0414 137.441 83.6928 136.678 84.2697C135.915 84.828 134.808 85.1071 133.356 85.1071Z" fill="#8A35F5"/>
<path d="M150.589 85.2188C148.951 85.2188 147.546 84.828 146.374 84.0464C145.22 83.2647 144.513 81.9713 144.252 80.1661L145.899 79.8591C146.048 80.8454 146.346 81.627 146.793 82.204C147.258 82.7623 147.816 83.1624 148.468 83.4043C149.137 83.6463 149.845 83.7672 150.589 83.7672C151.706 83.7672 152.599 83.5439 153.269 83.0973C153.958 82.632 154.302 81.9992 154.302 81.199C154.302 80.3802 153.976 79.8126 153.325 79.4962C152.692 79.1798 151.845 78.9286 150.784 78.7425L149.5 78.5191C148.644 78.3703 147.872 78.1469 147.183 77.8492C146.495 77.5328 145.946 77.1141 145.536 76.593C145.146 76.0719 144.95 75.4205 144.95 74.6389C144.95 73.4665 145.406 72.5453 146.318 71.8753C147.249 71.2053 148.477 70.8704 150.003 70.8704C151.547 70.8704 152.785 71.224 153.716 71.9311C154.665 72.6197 155.26 73.6247 155.502 74.946L153.939 75.281C153.753 74.2016 153.306 73.4386 152.599 72.9919C151.91 72.5453 151.045 72.322 150.003 72.322C148.979 72.322 148.16 72.5174 147.546 72.9082C146.932 73.299 146.625 73.8759 146.625 74.6389C146.625 75.3833 146.904 75.9323 147.463 76.2859C148.021 76.6209 148.784 76.8721 149.752 77.0396L151.036 77.263C151.966 77.4118 152.804 77.6352 153.548 77.9329C154.292 78.2121 154.879 78.6122 155.307 79.1333C155.753 79.6544 155.977 80.3429 155.977 81.199C155.977 82.4831 155.493 83.4788 154.525 84.1859C153.557 84.8745 152.245 85.2188 150.589 85.2188Z" fill="#8A35F5"/>
<path d="M166.203 85.2188C164.807 85.2188 163.588 84.9304 162.546 84.3534C161.522 83.7579 160.722 82.9298 160.145 81.869C159.568 80.8082 159.28 79.5892 159.28 78.2121V77.8771C159.28 76.4813 159.568 75.2624 160.145 74.2202C160.722 73.1594 161.513 72.3406 162.518 71.7636C163.541 71.1681 164.705 70.8704 166.007 70.8704C167.273 70.8704 168.389 71.1402 169.357 71.6799C170.343 72.201 171.116 72.964 171.674 73.969C172.232 74.9553 172.512 76.137 172.512 77.5142V78.4075H160.955C161.01 80.101 161.522 81.413 162.49 82.3435C163.476 83.2554 164.714 83.7114 166.203 83.7114C167.468 83.7114 168.445 83.4229 169.134 82.846C169.841 82.2691 170.381 81.5619 170.753 80.7245L172.26 81.3944C171.981 82.0085 171.59 82.6134 171.088 83.2089C170.604 83.7858 169.971 84.2697 169.19 84.6605C168.408 85.0327 167.412 85.2188 166.203 85.2188ZM160.982 76.9559H170.809C170.734 75.4857 170.26 74.3598 169.385 73.5781C168.51 72.7779 167.384 72.3778 166.007 72.3778C164.649 72.3778 163.523 72.7779 162.629 73.5781C161.736 74.3598 161.187 75.4857 160.982 76.9559Z" fill="#8A35F5"/>
<path d="M181.854 85.1071C180.886 85.1071 179.983 84.9024 179.146 84.493C178.327 84.0836 177.666 83.4695 177.164 82.6506C176.68 81.8131 176.438 80.771 176.438 79.5241V71.2612H178.113V79.4124C178.113 80.8826 178.485 81.9527 179.229 82.6227C179.974 83.274 180.97 83.5997 182.216 83.5997C183.612 83.5997 184.775 83.1438 185.706 82.2319C186.636 81.3014 187.102 79.9056 187.102 78.0446V71.2612H188.777V84.828H187.157V82.3156H186.822C186.487 83.0414 185.938 83.6928 185.175 84.2697C184.412 84.828 183.305 85.1071 181.854 85.1071Z" fill="#8A35F5"/>
<path d="M193.699 84.828V71.2612H195.318V73.0477H195.653C195.932 72.5453 196.379 72.08 196.993 71.652C197.607 71.2053 198.482 70.982 199.617 70.982C200.715 70.982 201.599 71.2333 202.269 71.7357C202.957 72.2382 203.45 72.843 203.748 73.5502H204.083C204.4 72.843 204.893 72.2382 205.563 71.7357C206.233 71.2333 207.173 70.982 208.382 70.982C209.313 70.982 210.122 71.1774 210.811 71.5682C211.499 71.9404 212.039 72.4708 212.43 73.1594C212.821 73.8294 213.016 74.6203 213.016 75.5322V84.828H211.341V75.6997C211.341 74.732 211.043 73.9596 210.448 73.3827C209.871 72.7872 209.052 72.4894 207.991 72.4894C206.912 72.4894 206.009 72.843 205.284 73.5502C204.558 74.2388 204.195 75.2531 204.195 76.593V84.828H202.52V75.6997C202.52 74.732 202.222 73.9596 201.627 73.3827C201.05 72.7872 200.231 72.4894 199.17 72.4894C198.091 72.4894 197.188 72.843 196.462 73.5502C195.737 74.2388 195.374 75.2531 195.374 76.593V84.828H193.699Z" fill="#8A35F5"/>
<ellipse rx="46.8833" ry="18.9544" transform="matrix(-0.649028 -0.760765 -0.760765 0.649028 44.8482 47.9691)" stroke="#8A35F5" stroke-width="4"/>
<circle r="4.98799" transform="matrix(-1 0 0 1 14.0755 80.2308)" fill="#8A35F5"/>
<circle r="4.98799" transform="matrix(-1 0 0 1 75.9266 15.387)" fill="#8A35F5"/>
<line x1="13.3518" y1="79.5406" x2="75.2029" y2="14.6968" stroke="#8A35F5" stroke-width="2"/>
</svg>
