<svg width="159" height="95" viewBox="0 0 159 95" fill="none" xmlns="http://www.w3.org/2000/svg">
<g clip-path="url(#clip0_260_310)">
<path d="M11.9953 85.9632C10.8529 88.394 11.8932 91.3346 14.4805 92.0554C18.151 93.0779 21.9993 93.3703 25.7996 92.8964C31.2105 92.2216 36.2976 90.0218 40.4589 86.5571C44.6203 83.0924 47.6816 78.508 49.2806 73.3464C50.8796 68.1847 50.9493 62.6619 49.4816 57.4316C48.0139 52.2012 45.0701 47.4823 40.9987 43.8332C36.9272 40.1841 31.8985 37.7576 26.5077 36.8409C21.1169 35.9242 15.5896 36.5556 10.58 38.6605C7.10548 40.1203 3.98086 42.2465 1.37522 44.9014C-0.535699 46.8483 0.0761458 49.9611 2.33507 51.4907V51.4907C4.58106 53.0115 7.6025 52.3627 9.66921 50.6059C11.1056 49.385 12.7303 48.3835 14.4922 47.6433C17.7786 46.2625 21.4046 45.8482 24.941 46.4496C28.4775 47.051 31.7764 48.6428 34.4474 51.0367C37.1183 53.4305 39.0495 56.5263 40.0123 59.9574C40.9752 63.3886 40.9294 67.0117 39.8804 70.3978C38.8315 73.7839 36.8232 76.7914 34.0933 79.0643C31.3634 81.3372 28.0261 82.7803 24.4765 83.223C22.5402 83.4644 20.585 83.4027 18.6801 83.0487C16.0395 82.5581 13.1376 83.5325 11.9953 85.9632V85.9632Z" fill="#64ED4E"/>
<path d="M97.7517 4.4333C97.7711 1.35416 101.116 -0.549326 103.773 1.00702L156.807 32.0723C159.464 33.6287 159.439 37.4776 156.763 39.0004L103.343 69.396C100.667 70.9188 97.3457 68.9734 97.3651 65.8942L97.7517 4.4333Z" fill="#8A35F5"/>
</g>
<defs>
<clipPath id="clip0_260_310">
<rect width="159" height="95" fill="white"/>
</clipPath>
</defs>
</svg>
