<svg width="430" height="249" viewBox="0 0 430 249" fill="none" xmlns="http://www.w3.org/2000/svg">
<g clip-path="url(#clip0_187_339)">
<rect x="42.0332" y="22.9764" width="141.062" height="141.062" rx="10" transform="rotate(17.3361 42.0332 22.9764)" fill="#8A35F5"/>
<path d="M238.463 154.034C238.482 150.955 241.828 149.052 244.485 150.608L322.699 196.423C325.356 197.98 325.332 201.829 322.655 203.351L243.871 248.179C241.195 249.702 237.874 247.756 237.893 244.677L238.463 154.034Z" fill="#64ED4E"/>
<path d="M425 93C427.761 93 430.014 90.7598 429.867 88.0023C429.308 77.4974 426.989 67.152 422.997 57.4104C418.373 46.1272 411.597 35.8749 403.054 27.2391C394.511 18.6032 384.369 11.7529 373.207 7.0792C362.045 2.40552 350.082 -5.33844e-07 338 0C325.918 5.33844e-07 313.955 2.40552 302.793 7.07921C291.631 11.7529 281.489 18.6032 272.946 27.2391C264.403 35.8749 257.627 46.1272 253.003 57.4104C249.011 67.152 246.692 77.4974 246.133 88.0023C245.986 90.7598 248.239 93 251 93L338 93H425Z" fill="#FF6846"/>
</g>
<defs>
<clipPath id="clip0_187_339">
<rect width="430" height="249" fill="white"/>
</clipPath>
</defs>
</svg>
