<svg width="350" height="355" viewBox="0 0 350 355" fill="none" xmlns="http://www.w3.org/2000/svg">
<g clip-path="url(#clip0_187_344)">
<path d="M140.373 151.645C139.535 148.682 142.219 145.923 145.204 146.679L345.876 197.489C348.861 198.245 349.908 201.949 347.761 204.156L203.422 352.538C201.275 354.745 197.544 353.8 196.706 350.837L140.373 151.645Z" fill="#64ED4E"/>
<path d="M266.625 230.186C268.503 232.195 271.657 232.318 273.609 230.381C285.116 218.96 294.506 205.598 301.326 190.918C308.843 174.739 313.09 157.275 313.826 139.523C314.562 121.77 311.771 104.078 305.614 87.4549C299.457 70.8321 290.054 55.6047 277.942 42.6421C265.829 29.6794 251.245 19.2355 235.021 11.9064C218.797 4.57736 201.252 0.506789 183.387 -0.0728916C165.521 -0.652572 147.686 2.26999 130.899 8.52793C115.686 14.1993 101.604 22.5093 89.3073 33.0556C87.2023 34.861 87.0908 38.0486 88.9841 40.0748L110.521 63.123C112.398 65.1321 115.537 65.2371 117.652 63.4798C125.894 56.6307 135.248 51.2076 145.317 47.4539C156.942 43.1204 169.293 41.0966 181.664 41.498C194.035 41.8994 206.185 44.7182 217.42 49.7934C228.654 54.8687 238.754 62.1009 247.141 71.0773C255.529 80.0536 262.04 90.5983 266.304 102.109C270.568 113.62 272.5 125.872 271.99 138.165C271.481 150.458 268.54 162.552 263.335 173.756C258.835 183.442 252.719 192.299 245.259 199.954C243.324 201.94 243.196 205.111 245.089 207.138L266.625 230.186Z" fill="#FF6846"/>
<rect x="22.7319" y="164" width="83" height="83" rx="10" transform="rotate(17.3361 22.7319 164)" fill="#8A35F5"/>
</g>
<defs>
<clipPath id="clip0_187_344">
<rect width="350" height="355" fill="white"/>
</clipPath>
</defs>
</svg>
